<svg xmlns="http://www.w3.org/2000/svg" width="24.986" height="24.987" viewBox="1563.007 2179.007 24.986 24.987"><g data-name="CompositeLayer"><path d="m1575.5 2179.007 12.493 12.493-12.493 12.493-12.493-12.493 12.493-12.493Z" fill="rgba(28, 36, 42, 1)" fill-rule="evenodd" data-name="Rectangle 15"/><path d="M1577.336 2187.928A7.055 7.055 0 0 0 1574 2187a7.055 7.055 0 0 0-3.337.928c-1.91 1.034-3.282 2.61-3.595 2.988a4.369 4.369 0 0 0-.068.084 4.012 4.012 0 0 0 .056.07c.29.35 1.673 1.955 3.607 3.002a7.054 7.054 0 0 0 3.337.928 7.054 7.054 0 0 0 3.336-.928c2.182-1.181 3.664-3.072 3.664-3.072a4.011 4.011 0 0 0-.056-.07c-.29-.35-1.673-1.955-3.608-3.002Zm-.549.58a5.555 5.555 0 0 0-2.787-.841c-3.093 0-5.6 3.333-5.6 3.333a3.324 3.324 0 0 0 .045.058c.225.284 1.282 1.562 2.767 2.434a5.554 5.554 0 0 0 2.788.842c2.827 0 5.165-2.786 5.546-3.265a3.618 3.618 0 0 0 .054-.07 3.322 3.322 0 0 0-.045-.057c-.225-.285-1.282-1.562-2.768-2.434Zm.324 2.492a3.157 3.157 0 0 0-3.111-3.2 3.156 3.156 0 0 0-3.111 3.2 3.348 3.348 0 0 0 0 .01 3.157 3.157 0 0 0 3.11 3.19 3.04 3.04 0 0 0 1.862-.635 3.227 3.227 0 0 0 1.25-2.565Z" fill="rgba(255, 255, 255, 1)" fill-rule="evenodd" data-name="eye"/></g></svg>