<svg xmlns="http://www.w3.org/2000/svg" width="10.093" height="13.072" viewBox="278 28 10.093 13.072"><path d="M281.42 34.5a14.15 14.15 0 0 0 .685-.02v-5.667a.917.917 0 0 1 .126-.47.658.658 0 0 1 .558-.343.663.663 0 0 1 .57.362.92.92 0 0 1 .114.45v5.61a3.95 3.95 0 0 1 .684.048v-4.033a.916.916 0 0 1 .126-.47.658.658 0 0 1 .558-.342.662.662 0 0 1 .567.358.919.919 0 0 1 .117.454v4.899a5.605 5.605 0 0 1 .017-.016c.642-.594 1.913-1.56 2.365-1.386A.225.225 0 0 1 288 34a.367.367 0 0 1 .071.145c.166.63-.644 2.299-1.032 2.806A1.332 1.332 0 0 1 287 37l-3 4a.203.203 0 0 1-.078.059c-.116.047-.272-.032-.447-.184a2.887 2.887 0 0 1-.213-.21 2.86 2.86 0 0 1-.848.311 2.052 2.052 0 0 1-.31.024 2.365 2.365 0 0 1-.68-.106c-1.455-.438-2.924-2.166-3.32-3.894a3.925 3.925 0 0 1-.104-.847.92.92 0 0 1 0-.028 3.481 3.481 0 0 1 0-.066v-4.81a.915.915 0 0 1 .129-.473.658.658 0 0 1 .555-.339.663.663 0 0 1 .568.359.918.918 0 0 1 .116.454v3.177a3.66 3.66 0 0 1 .226-.005c.132 0 .27.005.414.012a35.88 35.88 0 0 1 .044.003v-4.812a.916.916 0 0 1 .127-.47.659.659 0 0 1 .558-.342c.378 0 .684.363.684.812V34.5Z" fill="rgba(255, 255, 255, 1)" fill-rule="evenodd" data-name="palm"/></svg>